<?xml version="1.0" standalone="no"?>
<!DOCTYPE svg PUBLIC "-//W3C//DTD SVG 20010904//EN"
 "http://www.w3.org/TR/2001/REC-SVG-20010904/DTD/svg10.dtd">
<svg version="1.0" xmlns="http://www.w3.org/2000/svg"
 width="2000.000000pt" height="2000.000000pt" viewBox="0 0 2000.000000 2000.000000"
 preserveAspectRatio="xMidYMid meet">
<metadata>
Created by potrace 1.14, written by Peter Selinger 2001-2017
</metadata>
<g transform="translate(0.000000,2000.000000) scale(0.100000,-0.100000)"
fill="#000000" stroke="none">
<path d="M500 10090 l0 -4090 2985 0 2985 0 0 620 0 620 -2270 0 -2270 0 0
1195 0 1195 2065 0 2065 0 0 585 0 585 -2065 0 -2065 0 0 1070 0 1070 2230 0
2230 0 0 620 0 620 -2945 0 -2945 0 0 -4090z"/>
<path d="M10687 11168 c-3 -3258 0 -3074 -53 -3348 -88 -452 -338 -723 -749
-810 -130 -27 -391 -37 -535 -21 -371 42 -596 179 -733 449 -62 122 -106 244
-136 382 -43 202 -53 312 -58 688 l-5 362 -716 0 -715 0 6 -387 c4 -261 11
-429 21 -513 87 -686 285 -1148 651 -1516 309 -310 710 -514 1170 -594 212
-36 325 -44 625 -44 812 0 1350 144 1812 484 347 256 602 656 723 1137 49 195
94 515 115 823 6 91 10 1225 10 3033 l0 2887 -715 0 -715 0 -3 -3012z"/>
<path d="M13870 10090 l0 -4090 715 0 715 0 0 1815 0 1815 1850 0 1850 0 0
585 0 585 -1850 0 -1850 0 0 1070 0 1070 2110 0 2110 0 0 620 0 620 -2825 0
-2825 0 0 -4090z"/>
</g>
</svg>
