<?xml version="1.0" standalone="no"?>
<!DOCTYPE svg PUBLIC "-//W3C//DTD SVG 20010904//EN"
 "http://www.w3.org/TR/2001/REC-SVG-20010904/DTD/svg10.dtd">
<svg version="1.0" xmlns="http://www.w3.org/2000/svg"
 width="1000.000000pt" height="1000.000000pt" viewBox="0 0 1000.000000 1000.000000"
 preserveAspectRatio="xMidYMid meet">
<metadata>
Created by potrace 1.11, written by Peter Selinger 2001-2013
</metadata>
<g transform="translate(0.000000,1000.000000) scale(0.100000,-0.100000)"
fill="#000000" stroke="none">
<path d="M1320 7770 l0 -2230 1550 0 1550 0 0 250 0 250 -1255 0 -1255 0 0
770 0 770 1160 0 1160 0 0 250 0 250 -1160 0 -1160 0 0 710 0 710 1245 0 1245
0 0 250 0 250 -1540 0 -1540 0 0 -2230z"/>
<path d="M5130 7770 l0 -2230 280 0 280 0 0 1784 c0 982 4 1787 8 1790 4 2
532 -800 1173 -1784 l1164 -1789 328 -1 327 0 0 2230 0 2230 -285 0 -285 0 -2
-1810 -3 -1810 -1175 1810 -1175 1809 -317 1 -318 0 0 -2230z"/>
<path d="M3150 4889 c-656 -67 -1201 -423 -1529 -1000 -144 -252 -248 -561
-301 -892 -128 -803 45 -1517 499 -2059 257 -306 636 -543 1026 -642 668 -168
1407 -6 1820 399 45 44 102 104 126 133 l45 54 68 -244 c38 -133 73 -258 78
-275 l9 -33 189 0 190 0 0 1175 0 1175 -980 0 -980 0 0 -250 0 -250 709 0 709
0 6 -25 c9 -35 -10 -267 -29 -361 -114 -557 -528 -951 -1105 -1051 -136 -24
-452 -24 -580 0 -500 93 -897 440 -1103 963 -102 258 -157 614 -142 909 31
602 206 1067 519 1381 210 210 431 327 717 381 141 26 464 24 619 -5 549 -100
884 -411 994 -924 l6 -28 296 0 296 0 -6 44 c-14 89 -67 279 -106 379 -81 206
-198 385 -355 542 -269 268 -616 427 -1075 491 -130 18 -502 26 -630 13z"/>
<path d="M7910 3098 c0 -1792 0 -1786 -46 -1938 -48 -161 -158 -307 -274 -363
-179 -87 -495 -101 -695 -32 -90 32 -197 105 -245 169 -115 152 -157 319 -167
664 l-6 202 -293 0 -294 0 0 -214 c0 -489 87 -767 314 -1004 170 -177 390
-283 691 -333 123 -21 503 -18 630 5 483 87 802 351 920 761 63 218 59 100 62
2023 l4 1752 -301 0 -300 0 0 -1692z"/>
</g>
</svg>
